<svg width="1200" height="320" viewBox="0 0 1200 320" fill="none" xmlns="http://www.w3.org/2000/svg">
  <defs>
    <linearGradient id="relayWave" x1="42" y1="30" x2="170" y2="176" gradientUnits="userSpaceOnUse">
      <stop stop-color="#FF745E"/>
      <stop offset="1" stop-color="#FF3665"/>
    </linearGradient>
    <filter id="relayBlur" x="-20" y="-20" width="230" height="230" filterUnits="userSpaceOnUse" color-interpolation-filters="sRGB">
      <feGaussianBlur stdDeviation="12" result="blur"/>
      <feColorMatrix in="blur" type="matrix" values="1 0 0 0 0.98 0 1 0 0 0.18 0 0 1 0 0.32 0 0 0 0.24 0"/>
    </filter>
  </defs>

  <rect width="1200" height="320" rx="36" fill="#08101A"/>
  <rect x="16" y="16" width="1168" height="288" rx="24" stroke="#152438" stroke-width="2"/>

  <g transform="translate(46 48)">
    <circle cx="94" cy="112" r="88" fill="#0C1522" stroke="#23334A" stroke-width="2"/>
    <circle cx="94" cy="112" r="70" stroke="#243549" stroke-width="1.6"/>
    <circle cx="94" cy="112" r="50" stroke="#243549" stroke-width="1.4" stroke-dasharray="4 8"/>
    <path d="M44 128C58 96 72 82 95 82C116 82 132 95 145 119" stroke="#FFE0DA" stroke-width="5" stroke-linecap="round"/>
    <path d="M58 144C69 123 80 114 95 114C109 114 118 121 129 138" stroke="#FFB8AB" stroke-width="4" stroke-linecap="round"/>
    <path d="M25 112L45 112" stroke="#FF7D65" stroke-width="3.5" stroke-linecap="round"/>
    <path d="M143 112L163 112" stroke="#FF7D65" stroke-width="3.5" stroke-linecap="round"/>
    <circle cx="94" cy="112" r="12" fill="url(#relayWave)"/>
    <circle cx="94" cy="112" r="96" filter="url(#relayBlur)" fill="url(#relayWave)" fill-opacity="0.18"/>
    <circle cx="38" cy="66" r="8" fill="#FF6B57"/>
    <circle cx="155" cy="55" r="8" fill="#FF5F82"/>
    <circle cx="168" cy="160" r="8" fill="#FF8B68"/>
    <circle cx="28" cy="168" r="8" fill="#FF5F82"/>
    <path d="M38 66L67 88" stroke="#394D66" stroke-width="2"/>
    <path d="M155 55L122 82" stroke="#394D66" stroke-width="2"/>
    <path d="M168 160L128 137" stroke="#394D66" stroke-width="2"/>
    <path d="M28 168L61 139" stroke="#394D66" stroke-width="2"/>
  </g>

  <g transform="translate(286 72)">
    <text x="0" y="72" fill="#F7F8FC" font-family="Outfit, Arial, sans-serif" font-weight="800" font-size="68" letter-spacing="3">DARKPULSE</text>
    <text x="2" y="121" fill="#F7F8FC" font-family="Outfit, Arial, sans-serif" font-weight="300" font-size="34" letter-spacing="10">INTELLIGENCE</text>
    <path d="M3 148H540" stroke="#1A2A3E" stroke-width="2"/>
    <text x="2" y="189" fill="#FF6B57" font-family="JetBrains Mono, monospace" font-weight="700" font-size="20" letter-spacing="4">DARK WEB RELAY / MULTI-SOURCE THREAT MONITORING</text>
    <text x="2" y="228" fill="#91A3B8" font-family="Outfit, Arial, sans-serif" font-weight="500" font-size="22">Built for hostile-surface tracking, intelligence enrichment, and analyst visibility.</text>
  </g>
</svg>
