<svg width="1200" height="320" viewBox="0 0 1200 320" fill="none" xmlns="http://www.w3.org/2000/svg">
  <defs>
    <linearGradient id="sentinelCore" x1="26" y1="28" x2="150" y2="160" gradientUnits="userSpaceOnUse">
      <stop stop-color="#FF6B57"/>
      <stop offset="1" stop-color="#D9254B"/>
    </linearGradient>
    <linearGradient id="sentinelStroke" x1="30" y1="26" x2="150" y2="170" gradientUnits="userSpaceOnUse">
      <stop stop-color="#FFAA9E"/>
      <stop offset="1" stop-color="#FF6B57"/>
    </linearGradient>
    <filter id="sentinelGlow" x="-30" y="-30" width="240" height="240" filterUnits="userSpaceOnUse" color-interpolation-filters="sRGB">
      <feGaussianBlur stdDeviation="14" result="blur"/>
      <feColorMatrix in="blur" type="matrix" values="1 0 0 0 0.95 0 1 0 0 0.18 0 0 1 0 0.32 0 0 0 0.34 0"/>
    </filter>
  </defs>

  <rect width="1200" height="320" rx="36" fill="#09111D"/>
  <rect x="16" y="16" width="1168" height="288" rx="24" stroke="#172538" stroke-width="2"/>

  <g transform="translate(56 58)">
    <circle cx="76" cy="82" r="58" fill="#0E1828" stroke="url(#sentinelStroke)" stroke-width="3"/>
    <circle cx="76" cy="82" r="72" fill="#0C1623" stroke="#26344A" stroke-width="2"/>
    <circle cx="76" cy="82" r="48" stroke="#243349" stroke-width="1.5" stroke-dasharray="6 8"/>
    <circle cx="76" cy="82" r="26" fill="url(#sentinelCore)"/>
    <path d="M28 82H56L66 65L81 101L95 72L109 82H124" stroke="#FFD4CC" stroke-width="6" stroke-linecap="round" stroke-linejoin="round"/>
    <path d="M76 18V34" stroke="#FF7A67" stroke-width="4" stroke-linecap="round"/>
    <path d="M134 82H118" stroke="#FF7A67" stroke-width="4" stroke-linecap="round"/>
    <path d="M76 146V130" stroke="#FF7A67" stroke-width="4" stroke-linecap="round"/>
    <path d="M18 82H34" stroke="#FF7A67" stroke-width="4" stroke-linecap="round"/>
    <circle cx="76" cy="82" r="84" filter="url(#sentinelGlow)" fill="url(#sentinelCore)" fill-opacity="0.16"/>
  </g>

  <g transform="translate(258 78)">
    <text x="0" y="66" fill="#F5F7FB" font-family="Outfit, Arial, sans-serif" font-weight="800" font-size="74" letter-spacing="2">DARKPULSE</text>
    <text x="4" y="114" fill="#FF6B57" font-family="Outfit, Arial, sans-serif" font-weight="700" font-size="26" letter-spacing="8">INTELLIGENCE</text>
    <text x="4" y="164" fill="#8FA1B7" font-family="Outfit, Arial, sans-serif" font-weight="500" font-size="24" letter-spacing="1">Threat detection, signal fusion, and dark web monitoring.</text>
    <path d="M4 194H512" stroke="#1B2B3F" stroke-width="2"/>
    <g transform="translate(4 216)">
      <rect width="176" height="34" rx="17" fill="#101B2A" stroke="#213147"/>
      <circle cx="22" cy="17" r="6" fill="#FF6B57"/>
      <text x="38" y="23" fill="#D5DEEA" font-family="Outfit, Arial, sans-serif" font-weight="600" font-size="15" letter-spacing="2">RANSOMWARE WATCH</text>
    </g>
    <g transform="translate(196 216)">
      <rect width="168" height="34" rx="17" fill="#101B2A" stroke="#213147"/>
      <circle cx="22" cy="17" r="6" fill="#FF8A5D"/>
      <text x="38" y="23" fill="#D5DEEA" font-family="Outfit, Arial, sans-serif" font-weight="600" font-size="15" letter-spacing="2">THREAT CORRELATION</text>
    </g>
    <g transform="translate(380 216)">
      <rect width="134" height="34" rx="17" fill="#101B2A" stroke="#213147"/>
      <circle cx="22" cy="17" r="6" fill="#FF496C"/>
      <text x="38" y="23" fill="#D5DEEA" font-family="Outfit, Arial, sans-serif" font-weight="600" font-size="15" letter-spacing="2">DARKNET FEEDS</text>
    </g>
  </g>
</svg>
